<svg height="112" viewBox="0 0 112 112" width="112" xmlns="http://www.w3.org/2000/svg"><path d="m108 0c-2.209139 0-4 1.790861-4 4v44c0 2.209139-1.790861 4-4 4h-28.5c-1.4540093-5.6409983-5.8590017-10.0459907-11.5-11.5v-36.5c0-2.209139-1.790861-4-4-4s-4 1.790861-4 4v36.5c-5.6409983 1.4540093-10.0459907 5.8590017-11.5 11.5h-32.5v-48c0-2.209139-1.790861-4-4-4s-4 1.790861-4 4v104c0 2.209139 1.790861 4 4 4s4-1.790861 4-4v-48h32.5c1.4540093 5.6409983 5.8590017 10.0459907 11.5 11.5v36.5c0 2.209139 1.790861 4 4 4s4-1.790861 4-4v-36.5c5.6409983-1.4540093 10.0459907-5.8590017 11.5-11.5h28.5c6.627417 0 12-5.372583 12-12v-44c0-2.209139-1.790861-4-4-4z"/></svg>